# xmcd
#
# Track frame offsets:
#	150
#	17496
#	33291
#	48441
#	62852
#	78129
#	93026
#	109104
#	122343
#	140607
#	157723
#	171466
#	185697
#	197467
#	211063
#	230587
#	248793
#	257982
#	270070
#	294906
#
# Disc length: 4084 seconds
#
# Revision: 1
# Processed by: cddbd v1.4PL0 Copyright (c) Steve Scherf et al.
# Submitted via: audiograbber 1.80
#
DISCID=000ff214
DTITLE=Various Artist - Hott Country 024
DYEAR=1900
DGENRE=
TTITLE0=Bryan White - One Small Miracle
TTITLE1=Reba McEntire - What If
TTITLE2=Travis Tritt - Still In Love With You
TTITLE3=Wynonna - Come Some Rainy Day
TTITLE4=Collin Raye - Little Red Rodeo
TTITLE5=Mark Chesnutt - It's Not Over
TTITLE6=Kinleys - Just Between You And Me
TTITLE7=Trisha Yearwood - Perfect Love
TTITLE8=Mila Mason - Closer To Heaven
TTITLE9=Jim Collins - The Next Step
TTITLE10=Clay Walker - Then What
TTITLE11=David Lee Murphy - Just Don't Wait Around "Til She's Leavin'
TTITLE12=Chris Cummings - The Kind Of Heart That Breaks
TTITLE13=George Strait - Round About Way
TTITLE14=Julian Austin - Two Ourt Of Three Ain't Bad
TTITLE15=Scooter Lee - Ribbon Of Highway
TTITLE16=Sara Evans - Shame About That
TTITLE17=River Road - Somebody Will
TTITLE18=Jason Sellers - That Does It
TTITLE19=Data - Data Track
EXTD=
EXTT0=
EXTT1=
EXTT2=
EXTT3=
EXTT4=
EXTT5=
EXTT6=
EXTT7=
EXTT8=
EXTT9=
EXTT10=
EXTT11=
EXTT12=
EXTT13=
EXTT14=
EXTT15=
EXTT16=
EXTT17=
EXTT18=
EXTT19=
PLAYORDER=
